<svg xmlns="http://www.w3.org/2000/svg" width="148" height="32" viewBox="0 0 148 32">
  <defs>
      <radialGradient id="a" cx="49.866%" cy="49.946%" r="49.919%" fx="49.866%" fy="49.946%" gradientTransform="matrix(1 0 0 .99847 0 0)">
          <stop offset="0%" stop-color="#797979"/>
          <stop offset="100%" stop-color="#4C4C4C"/>
      </radialGradient>
  </defs>
  <g fill="none" fill-rule="nonzero">
      <ellipse cx="15.915" cy="15.94" fill="#F4B960" rx="15.915" ry="15.94"/>
      <ellipse cx="14.318" cy="14.34" fill="#E66F32" rx="14.318" ry="14.34"/>
      <ellipse cx="16.217" cy="12.408" fill="#E43C41" rx="12.389" ry="12.408"/>
      <ellipse cx="17.211" cy="13.404" fill="#BDD041" rx="11.394" ry="11.411"/>
      <ellipse cx="16.367" cy="14.249" fill="#6DB54C" rx="10.58" ry="10.596"/>
      <ellipse cx="14.71" cy="12.589" fill="#AEDAE6" rx="8.892" ry="8.906"/>
      <ellipse cx="16.156" cy="11.14" fill="#56B8DE" rx="7.445" ry="7.457"/>
      <ellipse cx="17.061" cy="12.045" fill="#00B1D5" rx="6.541" ry="6.551"/>
      <ellipse cx="16.126" cy="12.981" fill="url(#a)" rx="5.607" ry="5.615"/>
      <ellipse cx="16.126" cy="12.981" fill="#221F1F" rx="5.607" ry="5.615"/>
      <ellipse cx="18.341" cy="10.924" fill="#FFF" rx="1.72" ry="1.116" transform="rotate(-65.832 18.341 10.924)"/>
      <g fill="#000">
          <path d="M36.925 9.842c0-.091.09-.182.18-.182h5.034c2.864 0 4.19 1.329 4.19 3.321a2.76 2.76 0 0 1-1.567 2.657v.03c1.115.453 1.838 1.57 1.808 2.807 0 2.476-1.688 3.683-4.642 3.683h-4.823c-.09 0-.18-.06-.21-.15v-.03l.03-12.136zm5.154 4.98c1.176 0 1.93-.664 1.93-1.63 0-.966-.724-1.66-1.93-1.66h-2.683c-.06 0-.12.03-.12.09v3.11c0 .06.03.09.09.12h.03l2.683-.03zm-2.713 5.374h2.803c1.297 0 2.05-.694 2.05-1.75 0-1.057-.723-1.721-2.02-1.721h-2.803c-.06 0-.12.03-.12.09v3.26c0 .091.03.121.09.121zM48.198 22.128c-.09 0-.18-.06-.211-.15v-8.514c0-.09.09-.181.18-.181H50.008c.09 0 .18.06.21.151v.785h.03c.453-.664 1.267-1.147 2.472-1.147.724 0 1.447.241 1.99.724.09.09.12.151.03.242l-1.055 1.237c-.06.091-.18.121-.271.06h-.03a2.6 2.6 0 0 0-1.417-.422c-1.236 0-1.809.815-1.809 2.234v4.8c0 .09-.09.181-.18.181H48.197zM55.13 19.894c-.24-.694-.33-1.449-.33-2.173-.031-.755.09-1.48.33-2.174.543-1.54 1.99-2.445 3.95-2.445 1.959 0 3.375.906 3.918 2.445.241.695.332 1.45.332 2.174.03.754-.09 1.479-.332 2.173-.543 1.54-1.99 2.446-3.919 2.446s-3.406-.906-3.948-2.446zm5.728-.573a4.95 4.95 0 0 0 .21-1.63 4.266 4.266 0 0 0-.21-1.63 1.731 1.731 0 0 0-1.779-1.148 1.807 1.807 0 0 0-1.808 1.147c-.15.544-.241 1.087-.211 1.63-.03.544.03 1.118.21 1.63.272.755 1.026 1.208 1.81 1.148a1.731 1.731 0 0 0 1.778-1.147zM72.915 22.128a.263.263 0 0 1-.241-.18l-1.839-5.676h-.03l-1.869 5.645c-.03.12-.12.181-.241.181h-1.628a.263.263 0 0 1-.24-.181l-3.015-8.483c-.03-.06 0-.151.06-.181.03 0 .06-.03.09 0h1.9c.12 0 .24.06.27.181l1.84 5.826h.03l1.808-5.826c.03-.12.15-.181.271-.181h1.417c.12 0 .211.06.271.181l1.93 5.826h.03l1.748-5.826c.03-.12.15-.211.271-.181h1.9c.06-.03.15.03.15.09v.091l-3.014 8.483c-.03.12-.12.181-.241.181l-1.628.03zM78.16 20.92c-.06-.06-.09-.18-.03-.24l.03-.03 1.115-1.088c.09-.06.21-.06.271 0a4.478 4.478 0 0 0 2.803.996c1.176 0 1.779-.452 1.779-1.056 0-.544-.332-.876-1.568-.966l-1.024-.09c-1.93-.182-2.924-1.088-2.924-2.597 0-1.72 1.326-2.777 3.707-2.777a6.123 6.123 0 0 1 3.587 1.086c.09.06.09.151.06.242v.03l-.964 1.087c-.06.09-.18.09-.271.03-.754-.453-1.628-.724-2.502-.724-.934 0-1.447.392-1.447.905 0 .514.332.815 1.567.936l1.025.09c1.99.182 2.954 1.148 2.954 2.597 0 1.75-1.386 2.989-4.009 2.989-1.537 0-2.984-.483-4.16-1.42zM87.775 19.864a5.863 5.863 0 0 1-.331-2.173 6.54 6.54 0 0 1 .301-2.174c.543-1.54 1.99-2.445 3.888-2.445 1.96 0 3.376.936 3.919 2.445.21.634.301 1.238.301 2.657 0 .09-.09.18-.18.18h-5.908c-.06 0-.121.03-.121.091v.03c0 .242.06.453.15.665.302.875 1.056 1.328 2.14 1.328a3.086 3.086 0 0 0 2.231-.845c.06-.09.211-.121.302-.03l1.175.965c.06.03.09.151.06.212 0 .03-.03.03-.03.03-.813.875-2.17 1.51-3.918 1.51-1.99 0-3.436-.906-3.979-2.446zm5.788-3.894c-.272-.725-.965-1.147-1.87-1.147-.904 0-1.627.422-1.868 1.147-.09.241-.12.483-.12.755 0 .06.03.09.09.12h3.768c.06 0 .12-.03.12-.09v-.03c0-.272-.06-.544-.12-.755zM97.541 22.128c-.09 0-.18-.06-.21-.15v-8.514c0-.09.09-.181.18-.181h1.839c.09 0 .18.06.21.151v.785h.031c.452-.664 1.266-1.147 2.472-1.147.723 0 1.447.241 1.99.724.09.09.12.151.03.242l-1.056 1.237c-.06.091-.18.121-.271.06h-.03a2.6 2.6 0 0 0-1.417-.422c-1.236 0-1.808.815-1.808 2.234v4.8c0 .09-.09.181-.181.181H97.54zM104.444 20.68a.197.197 0 0 1-.06-.272l1.236-1.329c.06-.09.18-.09.27-.03a6.413 6.413 0 0 0 3.648 1.328c1.598 0 2.532-.754 2.532-1.811 0-.906-.603-1.48-2.441-1.72l-.724-.091c-2.592-.332-4.07-1.48-4.07-3.563 0-2.264 1.78-3.773 4.552-3.773 1.538-.03 3.045.423 4.371 1.268.09.03.12.12.06.211 0 .03-.03.03-.03.06l-.934 1.359c-.06.09-.181.12-.272.06a5.856 5.856 0 0 0-3.225-.966c-1.356 0-2.11.695-2.11 1.66 0 .876.663 1.45 2.472 1.691l.723.09c2.593.333 4.01 1.48 4.01 3.623 0 2.204-1.719 3.865-5.065 3.865-1.989-.03-3.888-.755-4.943-1.66zM118.55 22.28c-1.928 0-2.652-.876-2.652-2.597v-4.649c0-.06-.03-.09-.09-.12h-.663c-.09 0-.181-.061-.211-.152v-1.268c0-.09.09-.18.18-.18h.664c.06 0 .12-.031.12-.091V10.777c0-.09.09-.18.181-.18h1.839c.09 0 .18.06.21.15v2.445c0 .06.03.091.091.121h1.296c.09 0 .181.06.211.151v1.268c0 .09-.09.181-.18.181h-1.297c-.06 0-.12.03-.12.09v4.62c0 .634.271.815.904.815h.482c.09 0 .181.06.211.15v1.51c0 .09-.09.181-.18.181h-.995zM126.96 22.128c-.09 0-.18-.06-.21-.15v-.665c-.453.604-1.357 1.027-2.683 1.027-1.748 0-3.195-.846-3.195-2.687 0-1.932 1.477-2.808 3.828-2.808h1.929c.06 0 .12-.03.12-.09V16.302c0-.996-.512-1.48-2.11-1.48a3.638 3.638 0 0 0-2.17.604c-.09.06-.21.06-.271-.03v-.03l-.723-1.208c-.06-.06-.03-.18.03-.241.783-.513 1.808-.875 3.376-.875 2.893 0 3.978.905 3.978 3.079v5.766c0 .09-.09.18-.18.18h-1.719v.061zm-.24-2.988v-.665c0-.06-.03-.09-.091-.12h-1.598c-1.416 0-2.05.362-2.05 1.177 0 .725.573 1.087 1.659 1.087 1.326.03 2.08-.453 2.08-1.48zM130.547 19.894c-.21-.694-.331-1.449-.301-2.173-.03-.725.09-1.48.301-2.174.543-1.57 2.02-2.445 3.95-2.445a4.184 4.184 0 0 1 3.315 1.389c.06.06.06.18 0 .241l-.03.03-1.236.996c-.09.06-.211.06-.271-.03v-.03a2.204 2.204 0 0 0-1.779-.755c-.844 0-1.507.393-1.778 1.148-.151.543-.241 1.086-.211 1.63a4.5 4.5 0 0 0 .21 1.66c.272.755.935 1.147 1.78 1.147.662.03 1.325-.271 1.778-.785.06-.09.18-.09.27-.03l1.237.996c.09.06.09.151.03.242l-.03.03a4.454 4.454 0 0 1-3.316 1.359c-1.899-.03-3.346-.876-3.919-2.446zM145.528 22.128a.331.331 0 0 1-.301-.18l-2.412-3.714-1.296 1.389v2.324c0 .09-.09.181-.18.181h-1.84c-.09 0-.18-.06-.21-.15V9.841c0-.091.09-.182.18-.182h1.84c.09 0 .18.06.21.151v7.215l3.256-3.562a.47.47 0 0 1 .361-.181h2.02c.06 0 .12.03.12.09 0 .03 0 .091-.03.091l-3.044 3.23 3.497 5.253c.03.06.03.12 0 .151-.03.03-.06.03-.09.03h-2.08z"/>
      </g>
  </g>
</svg>
